<svg xmlns="http://www.w3.org/2000/svg" viewBox="0 0 512 512" role="img" aria-labelledby="title">
  <title id="title">荷德奥旅游手账</title>
  <rect width="512" height="512" rx="112" fill="#2f7f6d"/>
  <circle cx="423" cy="92" r="74" fill="#f7c65e" opacity=".9"/>
  <path d="M86 132c0-25 20-45 45-45h250c25 0 45 20 45 45v248c0 25-20 45-45 45H131c-25 0-45-20-45-45z" fill="#fffaf0"/>
  <path d="M128 87h44v338h-44z" fill="#ef735b"/>
  <path d="M200 176c44-55 91-54 126-11 31 38 42 85 86 103" fill="none" stroke="#2f7f6d" stroke-width="18" stroke-linecap="round" stroke-dasharray="4 33"/>
  <circle cx="205" cy="172" r="22" fill="#ef735b"/>
  <circle cx="408" cy="267" r="22" fill="#ef735b"/>
  <path d="m263 245 88-53-32 82-24-25-32-4z" fill="#17384a" stroke="#17384a" stroke-width="8" stroke-linejoin="round"/>
  <path d="M215 336h151" stroke="#d4e4de" stroke-width="18" stroke-linecap="round"/>
  <path d="M215 375h105" stroke="#d4e4de" stroke-width="18" stroke-linecap="round"/>
</svg>
